<?xml version="1.0" encoding="UTF-8" standalone="no"?>
<svg width="125px" height="40px" viewBox="0 0 125 40" version="1.1" xmlns="http://www.w3.org/2000/svg" xmlns:xlink="http://www.w3.org/1999/xlink" xmlns:sketch="http://www.bohemiancoding.com/sketch/ns">
  <g stroke="none" stroke-width="1" fill="none" fill-rule="evenodd" sketch:type="MSPage">
    <path d="M28.7721089,32.8710938 L20.6436656,22.0872962 L17.1170394,22.0872962 L17.1170394,39.540591 L20.9017114,39.540591 L20.9017114,28.4536345 L29.2882005,39.540591 L32.5137733,39.540591 L32.5137733,22.0872962 L28.7291012,22.0872962 L28.7291012,32.8710938 L28.7721089,32.8710938 Z M40.5992089,0.173233696 L36.7715293,0.173233696 L36.7715293,17.6265285 L40.5992089,17.6265285 L40.5992089,0.173233696 L40.5992089,0.173233696 Z M3.78467202,32.4813179 L11.956123,32.4813179 L11.956123,29.0599524 L3.78467202,29.0599524 L3.78467202,25.5086617 L13.0743215,25.5086617 L13.0743215,22.0872962 L0,22.0872962 L0,39.540591 L13.2033444,39.540591 L13.2033444,36.1192255 L3.78467202,36.1192255 L3.78467202,32.4813179 L3.78467202,32.4813179 Z M11.483039,8.48845109 C12.7302604,7.7955163 13.7624437,6.71280571 13.7624437,4.72061821 L13.7624437,4.67730978 C13.7624437,1.94887908 11.5690542,0.173233696 8.04242804,0.173233696 L0,0.173233696 L0,17.6265285 L8.25746622,17.6265285 C12.1711612,17.6265285 14.7516193,16.0241168 14.7516193,12.8192935 L14.7516193,12.7759851 C14.7516193,10.4373302 13.5043979,9.26800272 11.483039,8.48845109 L11.483039,8.48845109 Z M3.69865675,3.50798234 L7.48332877,3.50798234 C9.07461132,3.50798234 9.97777169,4.1576087 9.97777169,5.28362772 L9.97777169,5.32693614 C9.97777169,6.62618886 8.90258077,7.18919837 7.22528295,7.18919837 L3.69865675,7.18919837 L3.69865675,3.50798234 L3.69865675,3.50798234 Z M10.9669473,12.3429008 C10.9669473,13.6421535 9.93476405,14.2484715 8.25746622,14.2484715 L3.69865675,14.2484715 L3.69865675,10.3940217 L8.12844331,10.3940217 C10.063787,10.3940217 10.9669473,11.1302649 10.9669473,12.2995924 L10.9669473,12.3429008 L10.9669473,12.3429008 Z M57.3721872,14.1185462 L48.7276523,14.1185462 L48.7276523,0.173233696 L44.8999726,0.173233696 L44.8999726,17.6265285 L57.3721872,17.6265285 L57.3721872,14.1185462 L57.3721872,14.1185462 Z M28.9011318,10.1774796 C28.9011318,12.9492187 27.4818798,14.3783967 25.1594674,14.3783967 C22.837055,14.3783967 21.417803,12.9059103 21.417803,10.0475543 L21.417803,0.173233696 L17.5901234,0.173233696 L17.5901234,10.1341712 C17.5901234,15.2878736 20.4286274,17.8863791 25.0734521,17.8863791 C29.7182769,17.8863791 32.6858038,15.2878736 32.6858038,10.0042459 L32.6858038,0.173233696 L28.8581241,0.173233696 L28.8581241,10.1774796 L28.9011318,10.1774796 Z M47.6094537,29.016644 L40.5992089,29.016644 L40.5992089,22.0872962 L36.7715293,22.0872962 L36.7715293,39.540591 L40.5992089,39.540591 L40.5992089,32.5679348 L47.6524613,32.5679348 L47.6524613,39.5838995 L51.480141,39.5838995 L51.480141,22.0872962 L47.6524613,22.0872962 L47.6524613,29.016644 L47.6094537,29.016644 Z M101.498022,36.3357677 C98.5304954,36.3357677 96.4661289,33.8238791 96.4661289,30.8355978 L96.4661289,30.7922894 C96.4661289,27.8040082 98.5735031,25.335428 101.498022,25.335428 C103.218328,25.335428 104.594572,26.0716712 105.927809,27.3276155 L108.336237,24.5125679 C106.744954,22.9101562 104.766603,21.8274457 101.498022,21.8274457 C96.1650754,21.8274457 92.4664187,25.8984375 92.4664187,30.8355978 L92.4664187,30.8789062 C92.4664187,35.9026834 96.2510907,39.84375 101.368999,39.84375 C104.723595,39.84375 106.701946,38.6311141 108.465259,36.7255435 L106.056832,34.2569633 C104.680587,35.5129076 103.476374,36.3357677 101.498022,36.3357677 L101.498022,36.3357677 Z M115.303474,36.162534 L115.303474,32.4813179 L123.474925,32.4813179 L123.474925,29.0599524 L115.303474,29.0599524 L115.303474,25.5086617 L124.593123,25.5086617 L124.593123,22.0872962 L111.518802,22.0872962 L111.518802,39.540591 L124.722146,39.540591 L124.722146,36.1192255 L115.303474,36.1192255 L115.303474,36.162534 Z M96.3801136,15.5910326 L94.2727394,13.4689198 C94.9608616,12.5594429 95.5199609,11.6066576 96.0790601,10.6538723 L93.7566478,8.31521739 C93.1975485,9.35461957 92.6384492,10.3940217 92.0793499,11.2601902 L89.7999452,8.96484375 C91.950327,8.1419837 93.4125867,6.75611413 93.4125867,4.41745924 C93.4125867,1.90557065 91.5202507,0 88.5957314,0 C85.2841433,0 83.3918073,2.1654212 83.3918073,4.59069293 C83.3918073,5.8033288 83.7788761,6.8860394 84.5960212,8.09867527 C82.4456393,9.09476902 81.2414255,10.6538723 81.2414255,12.8626019 C81.2414255,15.9808084 83.7358684,17.8863791 87.0044488,17.8863791 C88.9828001,17.8863791 90.6600979,17.1068274 92.0363423,15.9375 L94.0146936,17.9729959 L96.3801136,15.5910326 L96.3801136,15.5910326 Z M88.5097161,2.94497283 C89.4558841,2.94497283 90.1440063,3.55129076 90.1440063,4.59069293 C90.1440063,5.71671196 89.3698688,6.36633832 87.8646015,6.92934783 C87.1334717,6.10648777 86.8754259,5.54347826 86.8754259,4.76392663 C86.8324183,3.68121603 87.4775328,2.94497283 88.5097161,2.94497283 L88.5097161,2.94497283 Z M87.4345252,14.7248641 C86.0152732,14.7248641 85.0260975,13.9020041 85.0260975,12.6893682 C85.0260975,11.8231997 85.4991815,11.0003397 86.6173801,10.3940217 L89.9289681,13.7720788 C89.1548306,14.3783967 88.2946779,14.7248641 87.4345252,14.7248641 L87.4345252,14.7248641 Z M85.800235,32.8710938 L77.6717917,22.0872962 L74.1451655,22.0872962 L74.1451655,39.540591 L77.9298375,39.540591 L77.9298375,28.4536345 L86.3163266,39.540591 L89.5418994,39.540591 L89.5418994,22.0872962 L85.7572274,22.0872962 L85.7572274,32.8710938 L85.800235,32.8710938 Z M60.9848287,22.0872962 L53.5875152,39.540591 L57.4582025,39.540591 L59.049485,35.6428329 L66.3607833,35.6428329 L67.9520658,39.540591 L71.951776,39.540591 L64.5974702,22.0872962 L60.9848287,22.0872962 L60.9848287,22.0872962 Z M60.468737,32.2647758 L62.7911494,26.5913723 L65.1135618,32.2647758 L60.468737,32.2647758 L60.468737,32.2647758 Z M76.209532,8.83491848 C76.209532,3.94106658 72.42486,0.173233696 67.0058978,0.173233696 L60.2536989,0.173233696 L60.2536989,17.6265285 L67.0058978,17.6265285 C72.4678676,17.6265285 76.209532,13.8153872 76.209532,8.8782269 L76.209532,8.83491848 L76.209532,8.83491848 Z M72.2528295,8.92153533 C72.2528295,11.9964334 70.1454553,14.1185462 67.0058978,14.1185462 L64.0813785,14.1185462 L64.0813785,3.63790761 L67.0489054,3.63790761 C70.1884629,3.63790761 72.2958371,5.8033288 72.2958371,8.92153533 L72.2958371,8.92153533 L72.2528295,8.92153533 Z" id="Shape" fill="#4A4A4A" sketch:type="MSShapeGroup"></path>
  </g>
</svg>
