<?xml version="1.0" encoding="UTF-8" standalone="no"?>
<svg width="274px" height="146px" viewBox="0 0 274 146" version="1.1" xmlns="http://www.w3.org/2000/svg" xmlns:xlink="http://www.w3.org/1999/xlink" xmlns:sketch="http://www.bohemiancoding.com/sketch/ns">
  <g id="Page-1" stroke="none" stroke-width="1" fill="none" fill-rule="evenodd" sketch:type="MSPage">
    <path d="M121.8,88.8 L121.8,0 L90.4,0 L90.4,88.8 C90.4,99.46672 88.266688,107.299975 84,112.3 C79.733312,117.300025 72.000056,119.8 60.8,119.8 C54.399968,119.8 49.300019,118.900009 45.5,117.1 C41.699981,115.299991 38.733344,112.966681 36.6,110.1 C34.466656,107.233319 33.06667,103.933352 32.4,100.2 C31.73333,96.466648 31.4,92.666686 31.4,88.8 L31.4,0 L0,0 L0,88.8 C0,108.266764 5.299947,122.66662 15.9,132 C26.500053,141.33338 41.46657,146 60.8,146 C79.866762,146 94.799946,141.300047 105.6,131.9 C116.400054,122.499953 121.8,108.13343 121.8,88.8 L121.8,88.8 Z M187.436364,68 L137.636364,142.8 L172.836364,142.8 L204.636364,93.4 L235.836364,142.8 L273.236364,142.8 L223.436364,68.2 L269.236364,0 L234.836364,0 L205.836364,45.6 L177.836364,0 L141.436364,0 L187.436364,68 Z" id="UX" fill="#FFFFFF" sketch:type="MSShapeGroup"></path>
  </g>
</svg>
