<?xml version="1.0" encoding="UTF-8" standalone="no"?>
<svg width="184px" height="146px" viewBox="0 0 184 146" version="1.1" xmlns="http://www.w3.org/2000/svg" xmlns:xlink="http://www.w3.org/1999/xlink" xmlns:sketch="http://www.bohemiancoding.com/sketch/ns">
  <g id="Page-1" stroke="none" stroke-width="1" fill="none" fill-rule="evenodd" sketch:type="MSPage">
    <path d="M121.8,88.8 L121.8,5.68434189e-14 L90.4,5.68434189e-14 L90.4,88.8 C90.4,99.46672 88.266688,107.299975 84,112.3 C79.733312,117.300025 72.000056,119.8 60.8,119.8 C54.399968,119.8 49.300019,118.900009 45.5,117.1 C41.699981,115.299991 38.733344,112.966681 36.6,110.1 C34.466656,107.233319 33.06667,103.933352 32.4,100.2 C31.73333,96.466648 31.4,92.666686 31.4,88.8 L31.4,5.68434189e-14 L-1.84741111e-13,5.68434189e-14 L-1.84741111e-13,88.8 C-1.84741111e-13,108.266764 5.299947,122.66662 15.9,132 C26.500053,141.33338 41.46657,146 60.8,146 C79.866762,146 94.799946,141.300047 105.6,131.9 C116.400054,122.499953 121.8,108.13343 121.8,88.8 L121.8,88.8 Z M152.436364,5.68434189e-14 L152.436364,142.8 L183.836364,142.8 L183.836364,5.68434189e-14 L152.436364,5.68434189e-14 Z" id="UI" fill="#FFFFFF" sketch:type="MSShapeGroup"></path>
  </g>
</svg>
